<?xml version="1.0" encoding="utf-8"?>
<!-- Generator: Adobe Illustrator 22.0.1, SVG Export Plug-In . SVG Version: 6.00 Build 0)  -->
<svg version="1.1" xmlns="http://www.w3.org/2000/svg" xmlns:xlink="http://www.w3.org/1999/xlink" x="0px" y="0px"
	 viewBox="0 0 1024 500" style="enable-background:new 0 0 1024 500;" xml:space="preserve">
<style type="text/css">
	.st0{fill:#37474F;}
	.st1{fill:none;}
	.st2{fill:#00E676;}
	.st3{font-family:'Consolas';}
	.st4{font-size:36px;}
</style>
<g id="圖層_2">
	<rect class="st0" width="1024" height="500"/>
</g>
<g id="圖層_1">
	<g>
		<path class="st1" d="M340.9,1.4h366.7v366.7H340.9V1.4z"/>
		<g>
			<path class="st1" d="M554.8,200h152.8v152.8H554.8V200z"/>
			<path class="st2" d="M631.2,212.2c-35.1,0-64.2,29-64.2,64.2c0,35.1,29,64.2,64.2,64.2s64.2-29,64.2-64.2
				S666.3,212.2,631.2,212.2z M631.2,326.8c-27.5,0-50.4-22.9-50.4-50.4s22.9-50.4,50.4-50.4s50.4,22.9,50.4,50.4
				S658.7,326.8,631.2,326.8z M634.2,244.3h-9.2v38.2l33.6,19.9l4.6-7.6l-29-16.8V244.3z"/>
		</g>
		<g id="圖層_2_1_">
			<g>
				<polygon class="st2" points="449.3,155.7 424.9,129.7 432.5,122.1 457,146.5 				"/>
				<polygon class="st2" points="457,148 432.5,172.5 424.9,164.9 449.3,140.4 				"/>
				<rect x="458.5" y="161.8" class="st2" width="35.1" height="10.7"/>
			</g>
		</g>
		<path class="st2" d="M554.8,276.4c0-12.2,3.1-22.9,7.6-33.6H402V102.2h217l-1.5,99.3c4.6,0,9.2-1.5,12.2-1.5c1.5,0,4.6,0,6.1,0
			v-91.7c0-13.8-12.2-26-26-26H408.1c-13.8,0-24.4,12.2-24.4,26v126.8c0,13.8,12.2,26,26,26h-52v21.4h198.6
			C554.8,281,554.8,277.9,554.8,276.4z"/>
	</g>
	<text transform="matrix(1 0 0 1 106.2444 395.6296)"><tspan x="0" y="0" class="st2 st3 st4">Tired of waiting for your code to finish?</tspan><tspan x="79.2" y="43.2" class="st2 st3 st4">We’ll take you up when it’s done!</tspan></text>
</g>
</svg>
